<svg width="53" height="59" viewBox="0 0 53 59" fill="none" xmlns="http://www.w3.org/2000/svg">
<path d="M27.0754 55.0943L26.4711 54.9122L25.8717 55.11C17.388 57.9099 11.6148 56.1942 7.91444 52.5858C4.08463 48.8512 2.08824 42.7184 2.08411 36.0368C2.08002 29.41 4.17153 24.6806 7.85283 22.1366C11.5562 19.5773 17.4402 18.8296 25.9028 21.4699L26.6194 21.6935L27.3061 21.3904C35.4545 17.7936 41.2172 19.182 44.9566 22.3128C48.8383 25.5627 50.909 30.9936 50.9129 36.0396C50.9169 41.0901 48.8535 47.1298 44.8426 51.2384C40.9424 55.2336 35.1089 57.5144 27.0754 55.0943Z" fill="#FC2727" stroke="black" stroke-width="4"/>
<path d="M26.5074 21.5974C26.1937 15.6334 25.231 12.4532 21.6728 7.17421" stroke="black" stroke-width="4"/>
<path d="M12.3824 30.585C9.08059 35.0789 9.32873 39.2932 12.3824 45.5645" stroke="black" stroke-width="4"/>
<path d="M41.2315 5.9459C41.6442 7.5782 41.1363 8.78859 39.9293 9.86005C38.6277 11.0156 36.572 11.9222 34.2116 12.5958C31.8896 13.2584 29.4659 13.6424 27.601 13.8597C26.9757 13.9326 26.4185 13.9861 25.9558 14.025L24.5606 11.0425C25.0167 10.7147 25.5889 10.3128 26.2478 9.86874C28.0033 8.68586 30.3355 7.23109 32.7126 6.08078C35.159 4.89691 37.3759 4.1752 38.972 4.17936C39.7238 4.18132 40.1639 4.34464 40.43 4.53442C40.6768 4.71044 41.0119 5.07768 41.2315 5.9459Z" fill="#14D027" stroke="black" stroke-width="4"/>
</svg>
