<svg width="50" height="55" viewBox="0 0 50 55" fill="none" xmlns="http://www.w3.org/2000/svg">
<path d="M5.45194 7.32497C5.33919 7.25132 5.23321 7.18271 5.13483 7.1195L18.8278 1.92213C18.8394 1.92797 18.8515 1.93403 18.8639 1.94031C19.0382 2.02805 19.2907 2.15801 19.6001 2.32525C20.2194 2.66008 21.0636 3.14267 21.9633 3.73351C23.7865 4.93083 25.7437 6.51271 26.6019 8.16187C27.4242 9.74214 27.4163 11.389 27.4076 13.2184C27.4072 13.3077 27.4067 13.3976 27.4064 13.4878C27.3993 15.3906 27.4404 17.459 28.655 19.5793C29.797 21.5729 31.0023 22.4227 32.1987 23.2662C32.2691 23.3158 32.3394 23.3654 32.4097 23.4152C33.6247 24.2761 34.887 25.2359 36.2684 27.6473C37.6673 30.0892 38.1214 31.8342 38.3645 33.3679C38.4305 33.7844 38.4815 34.1959 38.5327 34.6083C38.6676 35.6956 38.8033 36.789 39.2157 37.9965C39.5242 38.8999 40.3242 40.0145 41.2861 41.1402C42.2605 42.2805 43.4484 43.486 44.5937 44.5823C45.7403 45.6798 46.8511 46.6747 47.6748 47.3948C47.9744 47.6568 48.2363 47.8826 48.4484 48.064L34.6677 53.2947C34.507 53.1842 34.2763 53.022 33.9939 52.8136C33.4184 52.3887 32.6302 51.7734 31.7822 51.0132C30.0767 49.4845 28.1719 47.4078 27.2329 45.1447C26.4148 43.1728 26.1218 41.6605 25.8295 40.152C25.7787 39.8895 25.7279 39.6272 25.6743 39.3625C25.3109 37.5673 24.8274 35.7155 23.3608 33.1553C21.8881 30.5847 20.7331 29.5871 19.5992 28.6122L19.5871 28.6018C18.5147 27.6799 17.4619 26.7748 16.0752 24.3542C14.6914 21.9386 14.5288 20.4057 14.4649 19.0303C14.4591 18.9046 14.4541 18.7795 14.4491 18.6545C14.3987 17.3821 14.3486 16.1185 13.3761 14.4209C12.3129 12.5651 10.0142 10.6037 8.05245 9.13937C7.05994 8.39853 6.13182 7.76914 5.45194 7.32497Z" fill="#DA6666" stroke="black"/>
<path d="M9.0012 6.01409C8.8845 5.91294 8.77673 5.82031 8.67918 5.73701L11.3747 4.71387C11.5201 4.82787 11.7198 4.98656 11.9609 5.18306C12.4878 5.61256 13.2106 6.22148 13.9935 6.93846C15.5717 8.3836 17.3472 10.2258 18.2858 11.9057C19.1732 13.4941 19.2255 15.0023 19.2836 16.681C19.2856 16.7378 19.2876 16.7949 19.2896 16.8521C19.3506 18.5834 19.4514 20.4678 20.6597 22.5769C21.7943 24.5574 22.9114 25.4301 24.0301 26.3041C24.0956 26.3552 24.161 26.4063 24.2264 26.4577C25.3641 27.3502 26.556 28.3462 27.9443 30.7696C29.3364 33.1997 29.8978 35.5097 30.3039 37.6227C30.3698 37.9655 30.4319 38.3056 30.4932 38.6418C30.8037 40.3441 31.0959 41.946 31.778 43.2893C32.1993 44.119 32.9558 45.0702 33.8208 46.0113C34.6923 46.9593 35.7011 47.9261 36.6548 48.7909C37.6095 49.6566 38.5143 50.4251 39.1802 50.9769C39.3553 51.122 39.5139 51.2522 39.6528 51.3654L36.7467 52.4684C36.6101 52.351 36.4256 52.19 36.2035 51.9904C35.6974 51.5358 34.9969 50.8819 34.222 50.0873C32.6668 48.4926 30.8351 46.3548 29.6616 44.1372C28.5529 42.0422 28.2839 40.4343 28.0008 38.7422C27.9859 38.6532 27.971 38.5639 27.9559 38.4744C27.6514 36.6679 27.2828 34.7625 25.8085 32.1891C24.3359 29.6184 23.1809 28.6208 22.047 27.6459L22.0349 27.6355C20.9625 26.7136 19.9096 25.8085 18.523 23.3879C17.1392 20.9724 16.9767 19.4394 16.9127 18.064C16.9069 17.9384 16.9019 17.8132 16.897 17.6882C16.8466 16.4158 16.7965 15.1522 15.824 13.4546C14.7806 11.6333 12.8262 9.5696 11.1692 7.98607C10.3345 7.18836 9.56356 6.50156 9.0012 6.01409ZM14.3649 3.97821C14.2482 3.87705 14.1405 3.78443 14.0429 3.70113L16.7385 2.67798C16.8838 2.79199 17.0835 2.95067 17.3246 3.14717C17.8515 3.57667 18.5743 4.1856 19.3573 4.90258C20.9354 6.34771 22.7109 8.18987 23.6495 9.86984C24.5369 11.4582 24.5892 12.9665 24.6474 14.6452C24.6493 14.702 24.6513 14.759 24.6533 14.8162C24.7143 16.5476 24.8151 18.4319 26.0234 20.541C27.158 22.5216 28.2751 23.3943 29.3938 24.2682C29.4593 24.3193 29.5247 24.3704 29.5902 24.4218C30.7278 25.3143 31.9197 26.3103 33.308 28.7338C34.7001 31.1638 35.2615 33.4738 35.6677 35.5868C35.7336 35.9296 35.7956 36.2697 35.8569 36.6059C36.1674 38.3082 36.4596 39.9101 37.1417 41.2534C37.563 42.0832 38.3195 43.0343 39.1846 43.9754C40.056 44.9234 41.0649 45.8902 42.0186 46.755C42.9732 47.6207 43.878 48.3892 44.5439 48.941C44.719 49.0861 44.8776 49.2163 45.0165 49.3295L42.1104 50.4325C41.9738 50.3151 41.7894 50.1541 41.5672 49.9545C41.0611 49.4999 40.3607 48.846 39.5857 48.0514C38.0305 46.4567 36.1988 44.3189 35.0253 42.1013C33.9166 40.0063 33.6476 38.3984 33.3645 36.7063C33.3496 36.6173 33.3347 36.528 33.3196 36.4385C33.0151 34.632 32.6465 32.7267 31.1723 30.1532C29.6996 27.5825 28.5446 26.5849 27.4107 25.61L27.3986 25.5997C26.3262 24.6778 25.2734 23.7726 23.8867 21.352C22.5029 18.9365 22.3404 17.4035 22.2765 16.0281C22.2706 15.9025 22.2657 15.7773 22.2607 15.6523C22.2103 14.38 22.1602 13.1163 21.1877 11.4187C20.1443 9.59744 18.1899 7.53371 16.5329 5.95019C15.6982 5.15247 14.9273 4.46568 14.3649 3.97821Z" fill="#FFF6C8" stroke="black"/>
<path d="M1.06307 0.749576C1.0097 0.661471 0.958761 0.578175 0.910605 0.500031H16.0319C16.0408 0.511088 16.0502 0.52264 16.0599 0.534681C16.1721 0.67402 16.3334 0.87849 16.5268 1.13629C16.914 1.65244 17.428 2.3795 17.936 3.22342C18.9676 4.93714 19.9124 7.03335 19.8347 8.80575C19.7601 10.508 18.9031 11.9889 17.9426 13.6489C17.8967 13.7282 17.8506 13.8079 17.8044 13.888C16.8114 15.6078 15.7675 17.5067 15.7675 19.8622C15.7674 22.0754 16.4237 23.2694 17.07 24.4452C17.1081 24.5147 17.1463 24.584 17.1842 24.6535C17.837 25.8491 18.4787 27.1451 18.4787 29.7933C18.4787 32.4794 17.9861 34.2107 17.4116 35.6802C17.2563 36.0776 17.0896 36.4665 16.9223 36.8569C16.4794 37.8902 16.0319 38.9343 15.7776 40.1758C15.5858 41.1126 15.7346 42.4078 16.0219 43.7594C16.3135 45.1308 16.765 46.634 17.234 48.0223C17.7036 49.4125 18.1942 50.697 18.567 51.6335C18.695 51.9549 18.8092 52.2356 18.9041 52.4658H3.67594C3.58777 52.3106 3.46262 52.0838 3.31437 51.7967C3.01379 51.2146 2.61961 50.3871 2.24641 49.4083C1.49521 47.4381 0.850915 44.9109 1.17305 42.5506C1.45462 40.4875 1.9725 39.021 2.49076 37.5535C2.58101 37.2979 2.67127 37.0423 2.7603 36.7835C3.36392 35.0289 3.88906 33.1781 3.88906 30.345C3.88906 27.4988 3.3577 26.1904 2.83505 24.9141L2.82909 24.8996C2.33709 23.6982 1.85562 22.5225 1.85562 19.8622C1.85562 17.2087 2.50056 15.7715 3.1553 14.5057C3.21522 14.3898 3.27574 14.2746 3.33628 14.1594C3.95079 12.9899 4.56676 11.8176 4.56676 9.93111C4.56676 7.86914 3.4961 5.29134 2.4791 3.29071C1.96372 2.27687 1.44891 1.38644 1.06307 0.749576Z" fill="#DA6666" stroke="black"/>
<path d="M4.95369 0.821403C4.90696 0.705707 4.86305 0.598323 4.82246 0.500031H7.81953C7.89194 0.653119 7.99046 0.865405 8.1068 1.12617C8.36107 1.69608 8.69963 2.4957 9.03656 3.4137C9.71638 5.26597 10.366 7.53874 10.3446 9.37354C10.3243 11.1055 9.59358 12.4812 8.77242 14.0271C8.74553 14.0777 8.71855 14.1285 8.69148 14.1795C7.8485 15.7684 6.95563 17.5204 6.95561 19.8622C6.9556 22.0595 7.51903 23.2432 8.07942 24.4205C8.11227 24.4895 8.14511 24.5585 8.17782 24.6277C8.74403 25.8249 9.30405 27.1301 9.30405 29.7933C9.30405 32.4649 8.61602 34.7448 7.88742 36.7985C7.76857 37.1335 7.64743 37.4658 7.52784 37.7937C7.28487 38.46 7.04834 39.1087 6.85056 39.7272C6.55332 40.6568 6.32702 41.5658 6.27844 42.4557C6.22899 43.3613 6.42254 44.4902 6.71825 45.6418C7.01643 46.8031 7.42942 48.0281 7.84504 49.1407C8.2611 50.2546 8.68247 51.263 8.99965 51.9927C9.0754 52.167 9.14526 52.3254 9.20774 52.4658H5.9798C5.91719 52.3128 5.83401 52.1045 5.73683 51.8486C5.51455 51.2633 5.21961 50.4309 4.93025 49.4456C4.34925 47.4672 3.80091 44.906 3.88841 42.5012C3.97105 40.23 4.55938 38.6872 5.18157 37.0555C5.21413 36.9701 5.24678 36.8845 5.27946 36.7985C5.94191 35.0553 6.59988 33.1946 6.59988 30.345C6.59988 27.4988 6.06852 26.1904 5.54587 24.9141L5.53992 24.8996C5.04791 23.6982 4.56645 22.5225 4.56645 19.8622C4.56645 17.2087 5.2114 15.7715 5.86617 14.5057C5.92609 14.3898 5.98662 14.2747 6.04716 14.1594C6.66169 12.9899 7.27769 11.8176 7.27769 9.93111C7.27769 7.91178 6.57518 5.36199 5.89561 3.3568C5.55294 2.34567 5.21049 1.4572 4.95369 0.821403ZM10.8719 0.821403C10.8252 0.705707 10.7813 0.598323 10.7407 0.500031H13.7377C13.8101 0.653119 13.9087 0.865405 14.025 1.12617C14.2793 1.69608 14.6178 2.4957 14.9548 3.4137C15.6346 5.26597 16.2843 7.53874 16.2628 9.37354C16.2426 11.1055 15.5118 12.4812 14.6906 14.0271C14.6637 14.0777 14.6368 14.1285 14.6097 14.1795C13.7667 15.7684 12.8738 17.5204 12.8738 19.8622C12.8738 22.0595 13.4372 23.2432 13.9976 24.4205C14.0305 24.4895 14.0633 24.5585 14.096 24.6277C14.6622 25.8249 15.2223 27.1301 15.2223 29.7933C15.2223 32.4649 14.5342 34.7448 13.8056 36.7985C13.6868 37.1335 13.5656 37.4658 13.4461 37.7937C13.2031 38.46 12.9665 39.1087 12.7688 39.7272C12.4715 40.6568 12.2452 41.5658 12.1966 42.4557C12.1472 43.3613 12.3407 44.4902 12.6365 45.6418C12.9346 46.8031 13.3476 48.0281 13.7632 49.1407C14.1793 50.2546 14.6007 51.263 14.9179 51.9927C14.9936 52.167 15.0635 52.3254 15.1259 52.4658H11.898C11.8354 52.3128 11.7522 52.1045 11.655 51.8486C11.4328 51.2633 11.1378 50.4309 10.8485 49.4456C10.2675 47.4672 9.71911 44.906 9.80662 42.5012C9.88925 40.23 10.4776 38.6872 11.0998 37.0555C11.1323 36.9701 11.165 36.8845 11.1977 36.7985C11.8601 35.0553 12.5181 33.1946 12.5181 30.345C12.5181 27.4988 11.9867 26.1904 11.4641 24.9141L11.4581 24.8996C10.9661 23.6982 10.4847 22.5225 10.4847 19.8622C10.4847 17.2087 11.1296 15.7715 11.7844 14.5057C11.8443 14.3898 11.9048 14.2747 11.9654 14.1594C12.5799 12.9899 13.1959 11.8176 13.1959 9.93111C13.1959 7.91178 12.4934 5.36199 11.8138 3.3568C11.4711 2.34567 11.1287 1.4572 10.8719 0.821403Z" fill="#FFF6C8" stroke="black"/>
</svg>
