<svg width="69" height="54" viewBox="0 0 69 54" fill="none" xmlns="http://www.w3.org/2000/svg">
<rect x="5.41058" y="2.05405" width="57.3452" height="48.9715" rx="5" fill="#FFCB45" stroke="black" stroke-width="4"/>
<path d="M53.8037 33.5563L49.4881 40.4773L45.0401 33.6257L53.8037 33.5563Z" fill="#FBFFCF" stroke="black" stroke-width="4"/>
<rect x="2.03735" y="23.4791" width="64.0917" height="12.2429" rx="4" fill="#FF493E" stroke="black" stroke-width="4"/>
<path d="M2.03735 21.3576C2.03735 19.1485 3.82821 17.3576 6.03735 17.3576H62.1291C64.3382 17.3576 66.1291 19.1485 66.1291 21.3576V25.2219C66.1291 27.5735 64.1099 29.417 61.7694 29.1885C44.3504 27.4879 27.5877 25.3677 6.83132 28.7366C4.3428 29.1405 2.03735 27.2518 2.03735 24.7307V21.3576Z" fill="#14D027" stroke="black" stroke-width="4"/>
<ellipse cx="17.217" cy="12.7665" rx="1.68662" ry="1.53036" fill="#5E4427"/>
<ellipse cx="17.217" cy="40.313" rx="1.68662" ry="1.53036" fill="#5E4427"/>
<ellipse cx="27.3367" cy="43.3737" rx="1.68662" ry="1.53036" fill="#5E4427"/>
<ellipse cx="37.4565" cy="40.313" rx="1.68662" ry="1.53036" fill="#5E4427"/>
<ellipse cx="27.3367" cy="9.70583" rx="1.68662" ry="1.53036" fill="#5E4427"/>
<ellipse cx="37.4565" cy="12.7665" rx="1.68662" ry="1.53036" fill="#5E4427"/>
<ellipse cx="47.5762" cy="9.70583" rx="1.68662" ry="1.53036" fill="#5E4427"/>
</svg>
