<svg width="69" height="64" viewBox="0 0 69 64" fill="none" xmlns="http://www.w3.org/2000/svg">
<path d="M29.6899 40.5672C32.1247 39.9187 33.5911 37.9066 35.2703 35.581" stroke="black" stroke-width="3" stroke-linecap="round"/>
<path d="M15.6955 4.62838C14.9614 4.98664 14.5554 5.40504 14.3276 5.83093C14.094 6.26779 13.996 6.81096 14.0594 7.4837C14.1906 8.87533 14.989 10.5823 16.1442 12.3426C17.2786 14.071 18.6591 15.7055 19.77 16.9191C20.1354 17.3183 20.4689 17.669 20.7512 17.9591L26.5797 14.3124C26.4303 13.9677 26.2413 13.548 26.0156 13.0769C25.3756 11.741 24.4553 10.0254 23.3175 8.44242C22.1613 6.83379 20.8745 5.49617 19.5506 4.76819C18.3301 4.09715 17.1038 3.94115 15.6955 4.62838Z" fill="#14D027" stroke="black" stroke-width="3"/>
<path d="M4.10899 18.0965C3.70032 18.6985 3.59093 19.2 3.62509 19.6374C3.66098 20.0969 3.86621 20.607 4.29623 21.1694C5.18106 22.3266 6.8173 23.4478 8.77522 24.4457C10.6986 25.4259 12.78 26.2121 14.3964 26.756C14.943 26.9399 15.4327 27.0949 15.8405 27.2193L18.7663 21.6128C18.448 21.3818 18.0536 21.103 17.5985 20.796C16.3196 19.9336 14.5892 18.8679 12.7409 18.0143C10.8643 17.1476 9.00568 16.5659 7.44163 16.5364C5.97476 16.5088 4.88721 16.9502 4.10899 18.0965Z" fill="#14D027" stroke="black" stroke-width="3"/>
<path d="M5.54992 6.78073C4.98101 7.17611 4.74187 7.59839 4.66808 8.06077C4.58661 8.57126 4.69287 9.24262 5.06735 10.0886C5.82423 11.7986 7.4802 13.7917 9.48522 15.7539C11.4635 17.6899 13.6695 19.4892 15.3921 20.811C16.1003 21.3544 16.723 21.8143 17.2095 22.1666L22.0305 17.7058C21.7005 17.2827 21.2641 16.7361 20.7418 16.1104C19.4907 14.6117 17.7634 12.6798 15.8349 10.9086C13.8853 9.11798 11.8273 7.58304 9.92442 6.77788C8.04404 5.98225 6.65101 6.01551 5.54992 6.78073Z" fill="#14D027" stroke="black" stroke-width="3"/>
<path d="M59.2101 51.6336C59.2745 51.6418 59.3291 51.6467 59.375 51.6494C59.3817 51.4519 59.348 51.1374 59.223 50.6804C59.0768 50.1462 58.8281 49.4964 58.4739 48.7368C57.0438 45.6698 54.1315 41.3076 50.605 36.6059C43.5589 27.2116 34.3754 16.8711 30.6306 13.5587C29.1555 12.2539 27.448 11.9792 25.5786 12.4366C23.6202 12.9158 21.4928 14.2146 19.5708 16.0786C17.6636 17.9283 16.063 20.2354 15.1091 22.5685C14.1485 24.9184 13.8949 27.1635 14.4694 28.9598C14.7261 29.7624 15.3841 30.7454 16.5115 31.8829C17.6249 33.0063 19.1169 34.2018 20.9103 35.4345C24.4967 37.8995 29.163 40.428 34.0885 42.7445C39.0072 45.0576 44.1421 47.1395 48.6433 48.7175C53.181 50.3083 56.9613 51.3465 59.2101 51.6336Z" fill="#FF9345" stroke="black" stroke-width="3"/>
<path d="M42.48 37.3826C40.0153 39.3839 38.8344 41.1541 36.8996 44.862" stroke="black" stroke-width="3"/>
<path d="M40.8507 25.6084C37.5325 27.5812 37.9528 26.7839 35.2705 30.5947" stroke="black" stroke-width="3"/>
<path d="M28.5736 24.8605C24.9346 27.8685 23.1301 30.1189 20.203 34.833" stroke="black" stroke-width="3"/>
</svg>
