<svg width="23" height="56" viewBox="0 0 23 56" fill="none" xmlns="http://www.w3.org/2000/svg">
<path d="M15.4643 2.71617C15.4023 3.3052 15.3333 4.08394 15.2898 4.95556C15.1961 6.83127 15.2124 9.25572 15.7332 11.1359C16.2016 12.8269 17.2184 14.6222 18.2517 16.4467C18.3577 16.6338 18.4638 16.8213 18.5696 17.0089C19.7371 19.0806 20.922 21.2807 21.637 23.7339C21.9622 24.8493 22.0366 26.5233 21.9188 28.5095C21.8025 30.4696 21.5063 32.6356 21.1518 34.6819C20.7977 36.7253 20.3884 38.6328 20.0507 40.0711C19.8819 40.79 19.7317 41.3891 19.6159 41.8268C19.558 42.046 19.5094 42.2218 19.4721 42.3505C19.4297 42.497 19.413 42.5425 19.4173 42.5317C19.2532 42.9412 19.3476 43.3482 19.3966 43.5336C19.4595 43.7717 19.5606 44.0253 19.6654 44.2646C19.7883 44.5449 19.9549 44.889 20.1283 45.2474C20.2402 45.4785 20.355 45.7156 20.4627 45.9451C21.0612 47.2212 21.5965 48.5841 21.5965 49.7684C21.5965 52.1275 20.4261 53.5454 19.8332 54.046C19.8282 54.0472 19.8229 54.0485 19.8174 54.0498C19.7074 54.0754 19.54 54.1055 19.3108 54.1377C18.856 54.2016 18.2263 54.2645 17.4678 54.3219C15.9546 54.4364 13.9812 54.5251 11.9801 54.5605C9.97699 54.5961 7.96561 54.5779 6.37212 54.4818C5.57314 54.4335 4.90016 54.3669 4.39419 54.2824C4.14069 54.2401 3.94806 54.1964 3.81159 54.1549C3.72557 54.1287 3.68388 54.11 3.67202 54.1047C2.90698 53.521 2.53833 53.2186 2.28519 52.7361C2.02527 52.2407 1.83692 51.4393 1.83692 49.7684C1.83692 48.2831 2.36783 46.9234 2.93297 45.7763C3.07328 45.4915 3.21303 45.2248 3.34659 44.9713L3.38009 44.9077C3.49946 44.6812 3.61709 44.458 3.71654 44.2555C3.8232 44.0383 3.92972 43.8037 4.00112 43.5774C4.06343 43.38 4.15315 43.0303 4.0563 42.6543C4.03306 42.5641 3.97569 42.3744 3.89243 42.0991C3.53213 40.9078 2.68699 38.1134 2.02503 34.8405C1.62091 32.8424 1.29764 30.7166 1.21056 28.755C1.12258 26.7734 1.28112 25.0563 1.76747 23.8202C2.51928 21.9093 3.18289 20.4079 3.7828 19.0506C4.07748 18.3838 4.3568 17.7519 4.62365 17.1232C5.42845 15.2273 6.08045 13.4458 6.57351 11.0724C7.06732 8.6953 7.19318 6.33449 7.19797 4.57915C7.19999 3.84187 7.18063 3.20674 7.15734 2.71617H15.4643Z" fill="#2B1D0E" fill-opacity="0.8" stroke="black" stroke-width="2"/>
<path d="M6.05764 1.58037C6.16626 1.43219 6.31757 1.25689 6.54275 1H16.1435C16.1806 1.04157 16.2158 1.08088 16.2492 1.11823C16.4278 1.31797 16.5564 1.4617 16.662 1.59595C16.6748 1.61213 16.6861 1.6269 16.6961 1.64032C16.6809 1.66511 16.662 1.69445 16.6389 1.7287C16.5179 1.90744 16.3502 2.1226 16.1073 2.4323H6.58477C6.36528 2.14527 6.21051 1.94282 6.09417 1.76858C6.05869 1.71543 6.03301 1.67353 6.0146 1.6415C6.0263 1.62407 6.04049 1.60376 6.05764 1.58037Z" fill="#FF0000" stroke="black" stroke-width="2"/>
<path d="M15.8914 11.5252C15.7646 11.5204 15.6314 11.5154 15.4926 11.5102C14.3571 11.4682 12.8424 11.4176 11.3292 11.3839C9.81951 11.3502 8.29763 11.333 7.15326 11.3587C6.96051 11.363 6.77524 11.3686 6.60013 11.3758C6.73367 10.4802 6.89207 9.26333 7.02502 8.03141C7.16071 6.77401 7.27247 5.47747 7.30148 4.48449C7.30767 4.27236 7.3104 4.0659 7.30805 3.87111C7.35397 3.87143 7.40088 3.87175 7.44872 3.87207C8.42199 3.87866 9.78693 3.88657 11.1663 3.89185C12.5451 3.89712 13.9408 3.89977 14.9745 3.8958C15.0893 3.89536 15.1999 3.89484 15.3058 3.89422C15.2308 4.50282 15.1776 5.28095 15.1759 6.15253C15.1728 7.72391 15.337 9.67683 15.8914 11.5252Z" fill="white" stroke="black" stroke-width="2"/>
<path d="M1.06028 27.2519C1.21373 25.844 1.64843 24.4959 2.29329 22.7379H21.3494C21.3762 22.8272 21.4051 22.936 21.4347 23.0661C21.5752 23.6836 21.6918 24.5959 21.7388 25.6844C21.8235 27.6487 21.6761 30.0591 21.1137 32.1789H1.5878C1.02859 30.1442 0.908616 28.6433 1.06028 27.2519ZM21.239 22.4461C21.239 22.4461 21.2397 22.4472 21.241 22.4496C21.2396 22.4474 21.239 22.4462 21.239 22.4461Z" fill="#C40707" stroke="black" stroke-width="2"/>
</svg>
