<svg width="59" height="59" viewBox="0 0 59 59" fill="none" xmlns="http://www.w3.org/2000/svg">
<mask id="mask0_19_72" style="mask-type:alpha" maskUnits="userSpaceOnUse" x="5" y="6" width="49" height="47">
<mask id="path-1-inside-1_19_72" fill="white">
<path d="M52.0925 36.7384C48.2776 49.0331 35.07 55.7593 22.5925 51.7616C10.115 47.7639 3.09262 34.5563 6.90754 22.2616C10.7225 9.96686 23.9301 3.24074 36.4075 7.2384C48.885 11.2361 55.9074 24.4437 52.0925 36.7384ZM25.0945 28.0885C24.3506 30.486 25.72 33.0615 28.1531 33.841C30.5862 34.6205 33.1616 33.309 33.9055 30.9115C34.6495 28.514 33.2801 25.9385 30.847 25.159C28.4139 24.3795 25.8384 25.691 25.0945 28.0885Z"/>
</mask>
<path d="M52.0925 36.7384C48.2776 49.0331 35.07 55.7593 22.5925 51.7616C10.115 47.7639 3.09262 34.5563 6.90754 22.2616C10.7225 9.96686 23.9301 3.24074 36.4075 7.2384C48.885 11.2361 55.9074 24.4437 52.0925 36.7384ZM25.0945 28.0885C24.3506 30.486 25.72 33.0615 28.1531 33.841C30.5862 34.6205 33.1616 33.309 33.9055 30.9115C34.6495 28.514 33.2801 25.9385 30.847 25.159C28.4139 24.3795 25.8384 25.691 25.0945 28.0885Z" fill="#FF91C6" stroke="black" stroke-width="2" mask="url(#path-1-inside-1_19_72)"/>
</mask>
<g mask="url(#mask0_19_72)">
<mask id="path-2-inside-2_19_72" fill="white">
<path d="M52.0924 36.7384C48.2775 49.0331 35.0699 55.7593 22.5924 51.7616C10.115 47.7639 3.09256 34.5563 6.90748 22.2616C10.7224 9.96686 23.93 3.24074 36.4075 7.2384C48.885 11.2361 55.9074 24.4437 52.0924 36.7384ZM25.0944 28.0885C24.3505 30.486 25.7199 33.0615 28.153 33.841C30.5861 34.6205 33.1616 33.309 33.9055 30.9115C34.6494 28.514 33.28 25.9385 30.8469 25.159C28.4138 24.3795 25.8383 25.691 25.0944 28.0885Z"/>
</mask>
<path d="M52.0924 36.7384C48.2775 49.0331 35.0699 55.7593 22.5924 51.7616C10.115 47.7639 3.09256 34.5563 6.90748 22.2616C10.7224 9.96686 23.93 3.24074 36.4075 7.2384C48.885 11.2361 55.9074 24.4437 52.0924 36.7384ZM25.0944 28.0885C24.3505 30.486 25.7199 33.0615 28.153 33.841C30.5861 34.6205 33.1616 33.309 33.9055 30.9115C34.6494 28.514 33.28 25.9385 30.8469 25.159C28.4138 24.3795 25.8383 25.691 25.0944 28.0885Z" fill="#FF91C6" stroke="black" stroke-width="2" mask="url(#path-2-inside-2_19_72)"/>
<path d="M52.016 49.2859L53.4149 58.145H6.5V48.2408C6.51791 48.1966 6.5429 48.1358 6.57474 48.0605C6.64755 47.8884 6.75598 47.6411 6.89706 47.3437C7.17984 46.7475 7.59089 45.9564 8.10598 45.1686C8.62313 44.3777 9.2327 43.6095 9.90724 43.0437C10.5829 42.477 11.2851 42.145 12 42.145C13.5706 42.145 14.4509 42.8031 15.1464 43.4986C15.296 43.6481 15.4346 43.797 15.5738 43.9466C15.6018 43.9767 15.6298 44.0068 15.6579 44.0369C15.8218 44.2126 15.9913 44.3911 16.1655 44.5479C16.5118 44.8595 16.9409 45.145 17.5 45.145C18.0581 45.145 18.4866 44.8597 18.841 44.5559C19.0054 44.415 19.1718 44.2538 19.3358 44.095C19.3495 44.0817 19.3633 44.0684 19.377 44.0551C19.5584 43.8796 19.7442 43.7014 19.9504 43.5246C20.7494 42.8398 21.8873 42.145 24 42.145C25.0694 42.145 25.8073 42.3231 26.3373 42.5677C26.8635 42.8106 27.2134 43.1321 27.4909 43.4651C27.6324 43.6349 27.7547 43.8071 27.8775 43.9825C27.887 43.9961 27.8966 44.0098 27.9062 44.0236C28.0161 44.1808 28.1335 44.3487 28.2565 44.4963C28.536 44.8317 28.9132 45.145 29.5 45.145C29.7976 45.145 30.0748 45.0465 30.3198 44.9175C30.5655 44.7882 30.8074 44.6129 31.0406 44.4247C31.2746 44.2359 31.5164 44.0203 31.7575 43.8053L31.7617 43.8016C32.0048 43.5849 32.25 43.3662 32.5054 43.156C33.5507 42.2951 34.6092 41.7084 35.8419 42.1193C37.2104 42.5755 37.7562 43.24 38.1529 43.8067C38.1904 43.8603 38.2289 43.917 38.2686 43.9753C38.4302 44.2128 38.6107 44.4782 38.8172 44.677C39.115 44.9638 39.4871 45.145 40 45.145C40.3048 45.145 40.6003 45.0334 40.8615 44.8962C41.1284 44.756 41.4042 44.5646 41.6787 44.3547C41.9547 44.1437 42.2441 43.9023 42.5364 43.6568C42.5702 43.6284 42.604 43.5999 42.6379 43.5715C42.9001 43.351 43.1658 43.1277 43.4373 42.9104C44.055 42.4163 44.668 41.9831 45.2595 41.7296C45.8456 41.4783 46.3564 41.4261 46.8143 41.6092C47.3111 41.8079 47.8992 42.3429 48.5225 43.1278C49.1327 43.8961 49.7275 44.8401 50.2525 45.7665C50.7762 46.6907 51.2239 47.5859 51.5409 48.2508C51.6992 48.5829 51.8246 48.8569 51.9102 49.0473C51.9529 49.1424 51.9858 49.2167 52.0078 49.2669L52.016 49.2859Z" fill="#AA5B42" stroke="black"/>
<mask id="path-4-inside-3_19_72" fill="white">
<path d="M52.0925 36.7384C48.2776 49.0331 35.07 55.7593 22.5925 51.7616C10.115 47.7639 3.09262 34.5563 6.90754 22.2616C10.7225 9.96686 23.9301 3.24074 36.4075 7.2384C48.885 11.2361 55.9074 24.4437 52.0925 36.7384ZM25.0945 28.0885C24.3506 30.486 25.72 33.0615 28.1531 33.841C30.5862 34.6205 33.1616 33.309 33.9055 30.9115C34.6495 28.514 33.2801 25.9385 30.847 25.159C28.4139 24.3795 25.8384 25.691 25.0945 28.0885Z"/>
</mask>
<path d="M52.0925 36.7384C48.2776 49.0331 35.07 55.7593 22.5925 51.7616C10.115 47.7639 3.09262 34.5563 6.90754 22.2616C10.7225 9.96686 23.9301 3.24074 36.4075 7.2384C48.885 11.2361 55.9074 24.4437 52.0925 36.7384ZM25.0945 28.0885C24.3506 30.486 25.72 33.0615 28.1531 33.841C30.5862 34.6205 33.1616 33.309 33.9055 30.9115C34.6495 28.514 33.2801 25.9385 30.847 25.159C28.4139 24.3795 25.8384 25.691 25.0945 28.0885Z" stroke="black" stroke-width="2" mask="url(#path-4-inside-3_19_72)"/>
</g>
</svg>
