<svg width="65" height="63" viewBox="0 0 65 63" fill="none" xmlns="http://www.w3.org/2000/svg">
<path d="M49.3736 28.9139C48.3152 33.9474 45.7041 36.7528 42.6287 38.4104C39.4521 40.1226 35.6646 40.667 32.2695 40.8492C29.0486 41.0222 25.3095 40.4904 22.1599 38.7103C19.0813 36.9704 16.4445 33.977 15.3799 28.9138C14.3296 23.9185 15.9018 17.1109 19.2833 11.4823C22.6903 5.81139 27.4908 2.03 32.3767 2.03003C37.2626 2.03005 42.0631 5.81146 45.4701 11.4824C48.8517 17.111 50.424 23.9185 49.3736 28.9139Z" fill="#FFF6C8" stroke="black" stroke-width="4"/>
<path d="M62.2532 40.6002C61.1949 45.6337 58.5838 48.4392 55.5084 50.0968C52.3318 51.8089 48.5442 52.3533 45.1491 52.5356C41.9283 52.7085 38.1891 52.1768 35.0395 50.3967C31.961 48.6568 29.3242 45.6633 28.2596 40.6002C27.2092 35.6049 28.7814 28.7973 32.163 23.1687C35.57 17.4978 40.3704 13.7164 45.2563 13.7164C50.1423 13.7164 54.9427 17.4978 58.3498 23.1688C61.7314 28.7973 63.3036 35.6049 62.2532 40.6002Z" fill="#FFF6C8" stroke="black" stroke-width="4"/>
<path d="M36.4939 48.3911C35.4355 53.4246 32.8244 56.2301 29.749 57.8877C26.5724 59.5998 22.7849 60.1442 19.3898 60.3265C16.1689 60.4994 12.4298 59.9676 9.28017 58.1876C6.20164 56.4477 3.56484 53.4542 2.50022 48.3911C1.44986 43.3958 3.02208 36.5882 6.40363 30.9596C9.81064 25.2887 14.6111 21.5073 19.497 21.5073C24.3829 21.5073 29.1834 25.2887 32.5904 30.9597C35.972 36.5882 37.5443 43.3958 36.4939 48.3911Z" fill="#FFF6C8" stroke="black" stroke-width="4"/>
</svg>
