<svg width="58" height="49" viewBox="0 0 58 49" fill="none" xmlns="http://www.w3.org/2000/svg">
<path d="M33.9042 17.2928C28.5426 17.1221 23.3729 14.5411 14.7922 9.59571C24.8077 3.79281 30.9084 1.95454 36.3424 2.38394C41.5813 2.79792 46.3873 5.30487 53.7359 9.13815C54.0766 9.31584 54.4227 9.49638 54.7746 9.67969C45.0261 15.2314 39.2519 17.463 33.9042 17.2928Z" fill="#C4C4C4" stroke="black" stroke-width="3"/>
<path d="M6.54672 4.7655L14.455 9.81305L6.54672 14.8606L6.54672 4.7655Z" fill="#C4C4C4" stroke="black" stroke-width="3"/>
<mask id="path-3-inside-1_13_2" fill="white">
<ellipse cx="41.6355" cy="9.81307" rx="2.71028" ry="2.24718"/>
</mask>
<ellipse cx="41.6355" cy="9.81307" rx="2.71028" ry="2.24718" fill="#C4C4C4"/>
<path d="M41.3458 9.81307C41.3458 9.40223 41.5544 9.16124 41.6372 9.09263C41.7135 9.02929 41.7227 9.06024 41.6355 9.06024V15.0602C44.2385 15.0602 47.3458 13.2126 47.3458 9.81307H41.3458ZM41.6355 9.06024C41.5483 9.06024 41.5575 9.02929 41.6339 9.09263C41.7166 9.16124 41.9252 9.40223 41.9252 9.81307H35.9252C35.9252 13.2126 39.0325 15.0602 41.6355 15.0602V9.06024ZM41.9252 9.81307C41.9252 10.2239 41.7166 10.4649 41.6339 10.5335C41.5575 10.5968 41.5483 10.5659 41.6355 10.5659V4.56589C39.0325 4.56589 35.9252 6.4135 35.9252 9.81307H41.9252ZM41.6355 10.5659C41.7227 10.5659 41.7135 10.5968 41.6372 10.5335C41.5544 10.4649 41.3458 10.2239 41.3458 9.81307H47.3458C47.3458 6.4135 44.2385 4.56589 41.6355 4.56589V10.5659Z" fill="black" mask="url(#path-3-inside-1_13_2)"/>
<path d="M23.4668 32.382L25.3657 33.5259L23.2215 34.3174L23.4668 32.382Z" fill="#C4C4C4" stroke="black" stroke-width="3"/>
<path d="M41.1884 30.4688L41.5758 32.3882L39.3773 31.7067L41.1884 30.4688Z" fill="#C4C4C4" stroke="black" stroke-width="3"/>
<path d="M31.9839 30.046L33.3965 31.6002L31.0668 31.8374L31.9839 30.046Z" fill="#C4C4C4" stroke="black" stroke-width="3"/>
<path d="M33.9042 46.5059C28.5426 46.3353 23.3729 43.7543 14.7922 38.8089C24.8077 33.006 30.9084 31.1677 36.3424 31.5971C41.5813 32.0111 46.3873 34.518 53.7359 38.3513C54.0766 38.529 54.4227 38.7095 54.7746 38.8929C45.0261 44.4446 39.2519 46.6762 33.9042 46.5059Z" fill="#DA6666" stroke="black" stroke-width="3"/>
<path d="M6.54672 33.9787L14.455 39.0262L6.54672 44.0738L6.54672 33.9787Z" fill="#DA6666" stroke="black" stroke-width="3"/>
<mask id="path-10-inside-2_13_2" fill="white">
<ellipse cx="41.6355" cy="39.0262" rx="2.71028" ry="2.24718"/>
</mask>
<ellipse cx="41.6355" cy="39.0262" rx="2.71028" ry="2.24718" fill="#DA6666"/>
<path d="M41.3458 39.0262C41.3458 38.6154 41.5544 38.3744 41.6372 38.3058C41.7135 38.2425 41.7227 38.2734 41.6355 38.2734V44.2734C44.2385 44.2734 47.3458 42.4258 47.3458 39.0262H41.3458ZM41.6355 38.2734C41.5483 38.2734 41.5575 38.2425 41.6339 38.3058C41.7166 38.3744 41.9252 38.6154 41.9252 39.0262H35.9252C35.9252 42.4258 39.0325 44.2734 41.6355 44.2734V38.2734ZM41.9252 39.0262C41.9252 39.4371 41.7166 39.6781 41.6339 39.7467C41.5575 39.81 41.5483 39.7791 41.6355 39.7791V33.7791C39.0325 33.7791 35.9252 35.6267 35.9252 39.0262H41.9252ZM41.6355 39.7791C41.7227 39.7791 41.7135 39.81 41.6372 39.7467C41.5544 39.6781 41.3458 39.4371 41.3458 39.0262H47.3458C47.3458 35.6267 44.2385 33.7791 41.6355 33.7791V39.7791Z" fill="black" mask="url(#path-10-inside-2_13_2)"/>
</svg>
