<svg width="56" height="73" viewBox="0 0 56 73" fill="none" xmlns="http://www.w3.org/2000/svg">
<path d="M18.58 6.26999L7.93453 2.49659L14.7033 39.1973L24.3818 37.7278L18.58 6.26999Z" fill="#FFCB45" stroke="black" stroke-width="3"/>
<path d="M4.31731 15.9608L13.7922 11.7117L15.948 36.5657L6.16513 37.2643L4.31731 15.9608Z" fill="#FFCB45" stroke="black" stroke-width="3"/>
<path d="M38.2062 9.83154L27.5607 6.05815L34.3294 42.7589L44.0079 41.2893L38.2062 9.83154Z" fill="#FFCB45" stroke="black" stroke-width="3"/>
<path d="M31.3409 19.5224L21.866 15.2732L19.7102 40.1273L29.4931 40.8259L31.3409 19.5224Z" fill="#FFCB45" stroke="black" stroke-width="3"/>
<path d="M43.2233 15.2244L53.5497 13.1813L49.0147 37.7703L39.3362 36.3007L43.2233 15.2244Z" fill="#FFCB45" stroke="black" stroke-width="3"/>
<path d="M9.66415 70.3637L1.94233 34.5811H53.1791L45.4573 70.3637C45.4077 70.5939 45.2041 70.7583 44.9686 70.7583H10.1529C9.9174 70.7583 9.71383 70.5939 9.66415 70.3637ZM53.3098 33.9756L53.3096 33.9767L53.3098 33.9756Z" fill="#FC2727" stroke="black" stroke-width="3"/>
<path d="M36.7559 48.5145V48.5145C36.7559 48.4842 36.7561 48.4511 36.7563 48.4154C36.7605 47.7269 36.7707 46.06 35.4556 44.6322C34.0889 43.1482 31.6397 42.2658 27.5608 42.2658C23.3937 42.2658 20.9595 43.3725 19.6244 44.9496C18.3551 46.4491 18.3635 48.0625 18.3656 48.4745C18.3657 48.4894 18.3658 48.5028 18.3658 48.5145C18.3657 51.5252 19.9616 53.4623 21.9107 54.568C23.7788 55.6276 25.9837 55.9504 27.5608 55.9504C29.1379 55.9504 31.3429 55.6276 33.2109 54.568C35.1599 53.4623 36.7558 51.5252 36.7559 48.5145Z" fill="white" stroke="black" stroke-width="3"/>
</svg>
