<svg width="50" height="47" viewBox="0 0 50 47" fill="none" xmlns="http://www.w3.org/2000/svg">
<path d="M25.0778 43.5184L31.3504 44.5061C31.9594 44.602 31.8891 45.5 31.2726 45.5H18.7274C18.1108 45.5 18.0406 44.602 18.6496 44.5061L24.9222 43.5184C24.9738 43.5103 25.0262 43.5103 25.0778 43.5184Z" fill="black" stroke="black"/>
<path d="M44.2415 3.7551L44.3136 4.0352C44.3883 4.32516 44.1931 4.61528 43.8963 4.65536L39.8933 5.19605C39.4554 5.2552 39.0659 5.50442 38.8287 5.8772L28.643 21.882C28.498 22.11 28.198 22.1814 27.9658 22.0434L27.6432 21.8516C27.4004 21.7073 27.3252 21.3906 27.4773 21.1526L37.6907 5.16654C38.0777 4.56077 38.7068 4.15091 39.4172 4.0416L43.6813 3.38557C43.9352 3.3465 44.1774 3.50627 44.2415 3.7551Z" fill="white" stroke="black"/>
<line x1="25" y1="27.7537" x2="25" y2="43.7537" stroke="black" stroke-width="2"/>
<path d="M25 27.7537L9.41154 15.0037L40.5885 15.0037L25 27.7537Z" fill="#FEAEAE" fill-opacity="0.8" stroke="black"/>
<path d="M24.6803 27.8377L5.79674 12.1382C5.43692 11.8391 5.64846 11.2537 6.11639 11.2537L43.8836 11.2537C44.3515 11.2537 44.5631 11.8391 44.2033 12.1382L25.3196 27.8377C25.1344 27.9918 24.8656 27.9918 24.6803 27.8377Z" stroke="black"/>
</svg>
