<svg width="51" height="55" viewBox="0 0 51 55" fill="none" xmlns="http://www.w3.org/2000/svg">
<path d="M1.0775 53.2824C0.897672 53.1826 0.749243 53.0794 0.63318 52.9754C2.93015 49.7756 4.29248 48.333 6.51979 46.6155L7.42891 47.2216C6.89699 49.3644 6.69815 50.7895 6.52212 53.1771C5.35802 53.7119 4.15895 53.8939 3.62776 53.9745C3.56006 53.9848 3.5032 53.9934 3.45865 54.0009C3.44565 53.9997 3.42865 53.9979 3.40743 53.9954C3.33449 53.9866 3.22854 53.9709 3.09784 53.9471C2.83648 53.8995 2.48916 53.822 2.12521 53.7105C1.75936 53.5984 1.39 53.4559 1.0775 53.2824ZM3.37309 54.0178C3.38588 54.0144 3.39776 54.0119 3.40829 54.01C3.3943 54.0127 3.38253 54.0153 3.37309 54.0178Z" fill="#DA6666" stroke="black"/>
<path d="M49.4225 1.22045C49.6023 1.32029 49.7508 1.42351 49.8668 1.5275C47.5699 4.72725 46.2075 6.16983 43.9802 7.88732L43.0711 7.28125C43.603 5.13851 43.8018 3.71332 43.9779 1.32574C45.142 0.791005 46.3411 0.608998 46.8722 0.528368C46.9399 0.518091 46.9968 0.509461 47.0413 0.501958C47.0544 0.503161 47.0714 0.504945 47.0926 0.507492C47.1655 0.516247 47.2715 0.531974 47.4022 0.555769C47.6635 0.603353 48.0108 0.680828 48.3748 0.792354C48.7406 0.904459 49.11 1.04695 49.4225 1.22045ZM47.1269 0.485071C47.1141 0.488426 47.1022 0.490967 47.0917 0.492895C47.1057 0.490144 47.1175 0.487548 47.1269 0.485071Z" fill="#DA6666" stroke="black"/>
<path d="M38.737 6.94721C41.9263 5.22988 44.1695 5.34084 45.4298 6.39108C46.7095 7.45746 47.2482 9.70751 46.5127 12.8945C45.0347 19.2994 40.3742 28.1902 34.1399 34.66C27.8799 41.1564 19.7348 47.0706 12.832 49.5304C9.46873 50.7289 7.08439 49.9737 5.81794 48.4875C4.53475 46.9818 4.26899 44.5814 5.44715 42.225C6.62897 39.8614 8.88798 38.1755 12.0253 36.1041C12.448 35.825 12.8855 35.5396 13.3366 35.2453C16.2068 33.3727 19.6297 31.1394 23.3305 27.8765C27.6371 24.0794 29.9227 19.6518 31.9131 15.7958L31.9442 15.7357C33.9628 11.8254 35.6486 8.61019 38.737 6.94721Z" fill="#DA6666" stroke="black"/>
<path d="M11.3787 40.0014C12.7643 42.7994 14.2723 43.8452 16 45.0014" stroke="black" stroke-linecap="round"/>
<path d="M18.5 35.5014C19.8856 38.2994 21.651 38.8452 23.3786 40.0014" stroke="black" stroke-linecap="round"/>
<path d="M25 30.5014C26.3856 33.2994 27.6509 33.8452 29.3786 35.0014" stroke="black" stroke-linecap="round"/>
<path d="M30 25.5014C31.3857 28.2994 32.651 27.8452 34.3787 29.0014" stroke="black" stroke-linecap="round"/>
<path d="M34 19.5014C35.3856 22.2994 36.6511 21.8452 38.3787 23.0015" stroke="black" stroke-linecap="round"/>
<path d="M38 13.0014C39.3856 15.7994 40.6511 14.8452 42.3787 16.0014" stroke="black" stroke-linecap="round"/>
</svg>
