<svg width="52" height="34" viewBox="0 0 52 34" fill="none" xmlns="http://www.w3.org/2000/svg">
<path d="M49.3123 24.2509C48.0121 28.6432 45.8638 30.8054 43.4421 31.784C40.932 32.7983 37.8356 32.663 34.4558 31.8288C31.0961 30.9996 27.6557 29.5317 24.5601 28.1065C23.8982 27.8018 23.2435 27.4945 22.6048 27.1947C20.3557 26.1391 18.3051 25.1766 16.8402 24.7482C14.9132 24.1847 12.8681 24.0419 11.0155 23.949C10.7578 23.9361 10.5046 23.9241 10.2558 23.9123C8.64997 23.8363 7.22806 23.769 5.95789 23.5127C4.52787 23.224 3.50801 22.7323 2.80812 21.8929C2.10373 21.0481 1.5398 19.6299 1.50002 17.1063C1.50417 16.1731 2.0833 14.7799 3.4938 13.0969C4.87027 11.4545 6.88786 9.71888 9.37879 8.13245C14.3679 4.955 21.058 2.5 27.863 2.5C34.9268 2.5 41.6233 3.69575 45.8509 6.93895C47.9212 8.52718 49.4097 10.6124 50.0885 13.3611C50.7738 16.136 50.6601 19.6977 49.3123 24.2509Z" fill="#AE3D3D" stroke="black" stroke-width="3"/>
<path d="M49.0127 22.0716C47.5061 25.7085 45.2899 27.4281 42.7864 28.1171C40.1821 28.8338 37.0667 28.489 33.756 27.5439C30.4653 26.6046 27.1577 25.1257 24.2259 23.752C23.8101 23.5572 23.3997 23.3635 22.9976 23.1737C22.0005 22.7031 21.0542 22.2564 20.2024 21.8764C19.0206 21.3493 17.9062 20.8973 16.9858 20.6734C15.2554 20.2525 13.2939 20.1729 11.4603 20.1328C11.1575 20.1262 10.8581 20.1206 10.5623 20.1151C9.00397 20.0862 7.54607 20.0591 6.21544 19.8886C4.62674 19.6851 3.47926 19.3022 2.73102 18.6751C2.05824 18.1113 1.52268 17.1919 1.50001 15.4308C1.50305 14.4401 2.0565 13.0644 3.37547 11.4608C4.67065 9.8861 6.58153 8.24462 8.9734 6.75359C13.7592 3.77025 20.2914 1.5 27.2152 1.5C34.2948 1.5 41.3775 3.11591 45.8274 6.4868C48.0215 8.14882 49.5376 10.205 50.1686 12.6907C50.801 15.1819 50.5866 18.2722 49.0127 22.0716Z" fill="#DA6666" stroke="black" stroke-width="3"/>
<path d="M43.5 21.5C43.5 21.8427 43.3035 22.3063 42.6753 22.746C42.0519 23.1824 41.1107 23.5 40 23.5C38.8893 23.5 37.9481 23.1824 37.3247 22.746C36.6965 22.3063 36.5 21.8427 36.5 21.5C36.5 21.1573 36.6965 20.6937 37.3247 20.254C37.9481 19.8176 38.8893 19.5 40 19.5C41.1107 19.5 42.0519 19.8176 42.6753 20.254C43.3035 20.6937 43.5 21.1573 43.5 21.5Z" fill="white" stroke="black" stroke-width="3"/>
</svg>
